<svg width="64" height="64" viewBox="0 0 64 64" fill="none" xmlns="http://www.w3.org/2000/svg">
  <rect x="6" y="6" width="52" height="52" rx="16" fill="#F8FAFC"/>
  <rect x="6.5" y="6.5" width="51" height="51" rx="15.5" stroke="#D5E0ED"/>
  <path d="M24 22H18C15.7909 22 14 23.7909 14 26V38C14 40.2091 15.7909 42 18 42H24" stroke="#94A3B8" stroke-width="3" stroke-linecap="round"/>
  <path d="M40 22H46C48.2091 22 50 23.7909 50 26V38C50 40.2091 48.2091 42 46 42H40" stroke="#94A3B8" stroke-width="3" stroke-linecap="round"/>
  <path d="M27 26L22 32L27 38" stroke="#2563EB" stroke-width="3" stroke-linecap="round" stroke-linejoin="round"/>
  <path d="M37 26L42 32L37 38" stroke="#2563EB" stroke-width="3" stroke-linecap="round" stroke-linejoin="round"/>
  <path d="M30 42L34 20" stroke="#64748B" stroke-width="3" stroke-linecap="round"/>
</svg>
