<svg width="900" height="210" viewBox="0 0 900 210" fill="none" xmlns="http://www.w3.org/2000/svg">
  <rect width="900" height="210" rx="18" fill="#F8FAFC"/>
  <text x="28" y="34" font-family="Arial, Microsoft YaHei, sans-serif" font-size="18" font-weight="700" fill="#111827">自定义供应商图标候选</text>
  <g transform="translate(34 62)">
    <rect x="0" y="0" width="120" height="130" rx="14" fill="#FFFFFF" stroke="#E5E7EB"/>
    <image href="custom-api-window.svg" x="28" y="18" width="64" height="64"/>
    <text x="60" y="105" text-anchor="middle" font-family="Arial, Microsoft YaHei, sans-serif" font-size="13" fill="#374151">1 接口窗口</text>
  </g>
  <g transform="translate(174 62)">
    <rect x="0" y="0" width="120" height="130" rx="14" fill="#FFFFFF" stroke="#E5E7EB"/>
    <image href="custom-connector.svg" x="28" y="18" width="64" height="64"/>
    <text x="60" y="105" text-anchor="middle" font-family="Arial, Microsoft YaHei, sans-serif" font-size="13" fill="#374151">2 连接符</text>
  </g>
  <g transform="translate(314 62)">
    <rect x="0" y="0" width="120" height="130" rx="14" fill="#FFFFFF" stroke="#E5E7EB"/>
    <image href="custom-hub.svg" x="28" y="18" width="64" height="64"/>
    <text x="60" y="105" text-anchor="middle" font-family="Arial, Microsoft YaHei, sans-serif" font-size="13" fill="#374151">3 节点枢纽</text>
  </g>
  <g transform="translate(454 62)">
    <rect x="0" y="0" width="120" height="130" rx="14" fill="#FFFFFF" stroke="#E5E7EB"/>
    <image href="custom-plugin.svg" x="28" y="18" width="64" height="64"/>
    <text x="60" y="105" text-anchor="middle" font-family="Arial, Microsoft YaHei, sans-serif" font-size="13" fill="#374151">4 插件接入</text>
  </g>
  <g transform="translate(594 62)">
    <rect x="0" y="0" width="120" height="130" rx="14" fill="#FFFFFF" stroke="#E5E7EB"/>
    <image href="custom-stack.svg" x="28" y="18" width="64" height="64"/>
    <text x="60" y="105" text-anchor="middle" font-family="Arial, Microsoft YaHei, sans-serif" font-size="13" fill="#374151">5 模块栈</text>
  </g>
  <g transform="translate(734 62)">
    <rect x="0" y="0" width="120" height="130" rx="14" fill="#FFFFFF" stroke="#E5E7EB"/>
    <image href="custom-gateway.svg" x="28" y="18" width="64" height="64"/>
    <text x="60" y="105" text-anchor="middle" font-family="Arial, Microsoft YaHei, sans-serif" font-size="13" fill="#374151">6 网关</text>
  </g>
</svg>
